<?xml version="1.0" encoding="UTF-8"?> <svg xmlns="http://www.w3.org/2000/svg" width="948" height="379" viewBox="0 0 948 379" fill="none"> <path d="M345.704 272.629C358.344 272.629 390.576 270.355 414.465 252.921V266.123H462.687V208.01L482.848 187.165L526.645 266.123H584.41L518.24 153.37L582.767 82.1184H523.549L462.687 151.602V18.0042H414.465V39.2282C399.74 23.4365 375.977 11.498 338.626 11.498C258.235 11.498 243.194 60.3891 243.194 87.7402C243.194 125.324 263.354 146.169 298.62 154.697L348.485 167.33C374.839 173.647 393.673 178.637 393.673 198.092C393.673 224.054 366.307 230.244 341.659 230.244C296.534 230.244 289.014 203.904 289.014 189.881H239.654C239.654 220.643 255.391 272.945 345.704 272.945V272.629ZM378.505 124.945L318.022 109.912C307.721 107.511 291.668 103.595 291.668 83.9502C291.668 61.7787 315.242 54.1987 335.086 54.1987C380.211 54.1987 384.319 80.5392 385.646 92.0987H414.402V138.337C403.099 132.204 390.995 127.676 378.441 124.882" fill="#303030"></path> <path d="M255.202 341.544C255.202 345.903 257.54 354.178 271.634 354.178C279.344 354.178 287.939 352.283 287.939 344.134C287.939 337.818 282.062 336.554 273.782 334.533L258.172 330.68C253.134 330.017 248.538 327.459 245.32 323.527C242.103 319.596 240.506 314.586 240.855 309.519C240.855 300.991 245.595 285.705 270.686 285.705C294.449 285.705 300.895 301.307 300.895 310.972H285.348C284.906 307.434 283.642 299.16 269.548 299.16C263.228 299.16 255.96 301.56 255.96 308.508C255.96 315.457 260.953 315.836 264.176 316.594L283.136 321.205C293.69 323.858 303.423 328.153 303.423 342.05C303.423 365.485 279.66 367.316 272.834 367.316C244.584 367.316 239.654 350.956 239.654 341.355L255.202 341.544Z" fill="#959595"></path> <path d="M323.649 329.731L342.672 307.939H361.19L340.966 330.173L361.695 365.483H343.683L329.969 340.785L323.649 347.291V365.483H308.544V287.852H323.649V329.731Z" fill="#959595"></path> <path d="M419.398 336.611C419.582 340.579 418.959 344.543 417.567 348.263C416.175 351.983 414.042 355.382 411.298 358.255C408.554 361.128 405.255 363.415 401.602 364.977C397.948 366.54 394.015 367.345 390.041 367.345C386.067 367.345 382.135 366.54 378.481 364.977C374.827 363.415 371.529 361.128 368.785 358.255C366.04 355.382 363.908 351.983 362.516 348.263C361.123 344.543 360.501 340.579 360.685 336.611C360.501 332.644 361.123 328.68 362.516 324.96C363.908 321.239 366.04 317.84 368.785 314.967C371.529 312.094 374.827 309.807 378.481 308.245C382.135 306.683 386.067 305.877 390.041 305.877C394.015 305.877 397.948 306.683 401.602 308.245C405.255 309.807 408.554 312.094 411.298 314.967C414.042 317.84 416.175 321.239 417.567 324.96C418.959 328.68 419.582 332.644 419.398 336.611ZM376.169 336.611C376.169 344.002 378.444 354.235 390.073 354.235C401.702 354.235 403.851 344.065 403.851 336.674C403.851 329.284 401.765 319.177 390.073 319.177C378.381 319.177 376.169 329.221 376.169 336.611Z" fill="#959595"></path> <path d="M439.304 287.852H424.199V365.483H439.304V287.852Z" fill="#959595"></path> <path d="M461.868 329.731L480.891 307.939H499.408L479.184 330.173L499.914 365.483H481.839L468.188 340.785L461.868 347.291V365.483H446.763V287.852H461.868V329.731Z" fill="#959595"></path> <path d="M557.549 336.611C557.733 340.579 557.11 344.543 555.718 348.263C554.326 351.983 552.193 355.382 549.449 358.255C546.705 361.128 543.407 363.415 539.753 364.977C536.099 366.54 532.167 367.345 528.193 367.345C524.219 367.345 520.286 366.54 516.632 364.977C512.979 363.415 509.68 361.128 506.936 358.255C504.192 355.382 502.059 351.983 500.667 348.263C499.275 344.543 498.652 340.579 498.836 336.611C498.652 332.644 499.275 328.68 500.667 324.96C502.059 321.239 504.192 317.84 506.936 314.967C509.68 312.094 512.979 309.807 516.632 308.245C520.286 306.683 524.219 305.877 528.193 305.877C532.167 305.877 536.099 306.683 539.753 308.245C543.407 309.807 546.705 312.094 549.449 314.967C552.193 317.84 554.326 321.239 555.718 324.96C557.11 328.68 557.733 332.644 557.549 336.611ZM514.383 336.611C514.383 344.002 516.595 354.235 528.287 354.235C539.979 354.235 542.065 344.065 542.065 336.674C542.065 329.284 539.916 319.177 528.287 319.177C516.659 319.177 514.383 329.221 514.383 336.611Z" fill="#959595"></path> <path d="M573.542 307.938L585.74 350.386H585.93L598.57 307.938H614.686L593.956 365.482H578.03L557.363 307.938H573.542Z" fill="#959595"></path> <path d="M673.204 336.611C673.388 340.579 672.766 344.543 671.374 348.263C669.981 351.983 667.849 355.382 665.105 358.255C662.36 361.128 659.062 363.415 655.408 364.977C651.755 366.54 647.822 367.345 643.848 367.345C639.874 367.345 635.941 366.54 632.288 364.977C628.634 363.415 625.335 361.128 622.591 358.255C619.847 355.382 617.714 351.983 616.322 348.263C614.93 344.543 614.307 340.579 614.492 336.611C614.307 332.644 614.93 328.68 616.322 324.96C617.714 321.239 619.847 317.84 622.591 314.967C625.335 312.094 628.634 309.807 632.288 308.245C635.941 306.683 639.874 305.877 643.848 305.877C647.822 305.877 651.755 306.683 655.408 308.245C659.062 309.807 662.36 312.094 665.105 314.967C667.849 317.84 669.981 321.239 671.374 324.96C672.766 328.68 673.388 332.644 673.204 336.611ZM629.976 336.611C629.976 344.002 632.251 354.235 643.879 354.235C655.508 354.235 657.72 344.065 657.72 336.674C657.72 329.284 655.571 319.177 643.879 319.177C632.188 319.177 629.976 329.221 629.976 336.611Z" fill="#959595"></path> </svg> 