<svg width="34" height="12" viewBox="0 0 34 12" fill="none" xmlns="http://www.w3.org/2000/svg">
<g clip-path="url(#clip0_816_3689)">
<path d="M3.75045 11.9953C2.73739 11.9554 1.90856 11.6809 1.26048 11.171C1.1368 11.0736 0.842071 10.7816 0.743194 10.6584C0.480388 10.3311 0.301715 10.0126 0.182542 9.65926C-0.184172 8.57148 0.00456219 7.14408 0.722378 5.57752C1.33698 4.23635 2.28533 2.90618 3.93988 1.0639C4.18361 0.79281 4.9094 0 4.91409 0C4.91582 0 4.87627 0.0678568 4.82648 0.150489C4.39628 0.864105 4.02818 1.70467 3.82765 2.43238C3.50552 3.60004 3.54437 4.60209 3.94144 5.3791C4.21535 5.9144 4.68493 6.37806 5.21297 6.63437C6.13739 7.08292 7.4908 7.12003 9.14361 6.74295C9.25741 6.71683 14.8962 5.23445 21.6743 3.44869C28.4525 1.66276 33.9991 0.202712 34 0.203915C34.0019 0.205463 18.2525 6.87952 10.0767 10.342C8.78193 10.8901 8.43568 11.0286 7.82698 11.2402C6.27096 11.7814 4.87714 12.0396 3.75045 11.9953Z" fill="black"/>
</g>
<defs>
<clipPath id="clip0_816_3689">
<rect width="34" height="12" fill="white"/>
</clipPath>
</defs>
</svg>
